<svg xmlns="http://www.w3.org/2000/svg" xmlns:xlink="http://www.w3.org/1999/xlink" width="131" height="50" viewBox="0 0 131 50"><defs><path id="z4f9a" d="M199.8 46.36h1.81v-4.63h-1.67V30.89h-2.55v10.84h-4.49V30.89h-2.55v13.13h9.18z"/><path id="z4f9b" d="M206.65 36.33c.55 0 .95.18 1.2.54.25.37.36.89.3 1.56h-3.46c.07-.64.25-1.15.55-1.53.3-.38.78-.57 1.41-.57zm2.66 5.29a3.76 3.76 0 0 1-2.29.71c-.82 0-1.4-.2-1.78-.6-.36-.4-.56-1-.6-1.78h5.58a11.17 11.17 0 0 0 .19-1.78c0-.73-.1-1.33-.32-1.82a3.06 3.06 0 0 0-2.03-1.78c-.44-.13-.9-.19-1.37-.19-1.42 0-2.52.41-3.3 1.24-.78.82-1.17 2.06-1.17 3.71 0 1.54.35 2.75 1.04 3.63.7.88 1.8 1.32 3.3 1.32.72 0 1.4-.1 2.03-.3.64-.21 1.15-.47 1.52-.77z"/><path id="z4f9c" d="M215.93 42.22c-.34 0-.6-.04-.81-.12-.2-.09-.4-.2-.57-.33v-3.9c.15-.48.36-.83.62-1.07a1.6 1.6 0 0 1 1.11-.36c.6 0 1.05.23 1.32.68.28.45.41 1.09.41 1.91 0 1.14-.17 1.95-.52 2.45-.35.5-.87.74-1.56.74zm4.3-.97c.18-.64.28-1.36.28-2.16 0-1.65-.3-2.85-.88-3.6-.58-.74-1.46-1.11-2.62-1.11-.64 0-1.17.11-1.61.34-.44.22-.83.57-1.15 1.05h-.07l-.28-1.13h-1.77v13.13h2.42v-3.85a3.25 3.25 0 0 0 1.7.36c.68 0 1.28-.12 1.8-.36.53-.23.98-.58 1.35-1.03.36-.45.64-1 .83-1.64z"/><path id="z4f9d" d="M226.16 36.33c.55 0 .95.18 1.2.54.25.37.36.89.3 1.56h-3.46c.07-.64.25-1.15.55-1.53.3-.38.78-.57 1.41-.57zm1.94 7.64c.64-.2 1.15-.46 1.52-.76l-.8-1.6a3.77 3.77 0 0 1-2.29.72c-.82 0-1.4-.2-1.78-.6-.36-.4-.56-1-.6-1.78h5.58a11.1 11.1 0 0 0 .19-1.78c0-.73-.1-1.33-.32-1.82a3.05 3.05 0 0 0-2.03-1.78c-.44-.13-.9-.19-1.37-.19-1.42 0-2.52.41-3.3 1.24-.78.82-1.17 2.06-1.17 3.71 0 1.54.35 2.75 1.04 3.63.7.88 1.8 1.32 3.3 1.32.72 0 1.4-.1 2.03-.3z"/><path id="z4f9e" d="M235.7 36.92c.63 0 1.08.21 1.35.65.27.44.41 1.06.41 1.88 0 .9-.14 1.58-.44 2.06-.29.47-.77.71-1.44.71-.64 0-1.12-.26-1.43-.79a3.85 3.85 0 0 1-.47-1.98c0-.79.17-1.4.5-1.86.33-.45.83-.67 1.51-.67zm3.12 6.05c.76-.87 1.14-2.15 1.14-3.84 0-1.47-.34-2.54-1-3.24a3.55 3.55 0 0 0-2.69-1.04c-.7 0-1.29.13-1.78.37a3.3 3.3 0 0 0-1.27 1.19h-.06a6.6 6.6 0 0 1 .35-1.6c.15-.4.36-.71.62-.94.26-.22.57-.38.93-.46.36-.09.78-.15 1.25-.17.78-.07 1.4-.14 1.86-.23.46-.08.81-.24 1.06-.46l-.1-2.16c-.22.21-.56.37-1.02.46-.46.1-1 .17-1.65.23-.5.05-.97.12-1.42.2-.44.07-.86.2-1.25.38a3.76 3.76 0 0 0-1.88 2c-.23.52-.41 1.16-.53 1.92-.13.77-.19 1.69-.19 2.76 0 2.04.38 3.54 1.13 4.5.76.96 1.86 1.44 3.3 1.44a4 4 0 0 0 3.2-1.3z"/><path id="z4f9f" d="M245.43 42.22c-.34 0-.6-.04-.81-.12-.2-.09-.4-.2-.57-.33v-3.9c.15-.48.36-.83.62-1.07a1.6 1.6 0 0 1 1.11-.36c.6 0 1.05.23 1.32.68.27.45.41 1.09.41 1.91 0 1.14-.17 1.95-.52 2.45-.35.5-.87.74-1.56.74zm-.53-7.5c-.44.22-.82.57-1.15 1.05h-.07l-.28-1.13h-1.77v13.13h2.42v-3.85a3.26 3.26 0 0 0 1.7.36c.68 0 1.28-.12 1.8-.36.54-.23.98-.58 1.35-1.03.36-.45.64-1 .83-1.64.18-.64.28-1.36.28-2.16 0-1.65-.3-2.85-.88-3.6-.58-.74-1.46-1.11-2.62-1.11a3.5 3.5 0 0 0-1.61.34z"/><path id="z4f9g" d="M255.62 42.22c-.33 0-.62-.07-.86-.22a1.62 1.62 0 0 1-.59-.6 3.2 3.2 0 0 1-.33-.93 5.5 5.5 0 0 1-.12-1.14c0-1.02.17-1.76.5-2.21.34-.45.8-.68 1.4-.68.69 0 1.17.27 1.45.8.29.53.43 1.23.43 2.1 0 .99-.15 1.72-.46 2.18-.31.47-.78.7-1.42.7zm3.3-6.48a3.61 3.61 0 0 0-1.36-1 4.84 4.84 0 0 0-1.94-.36c-1.39 0-2.47.43-3.24 1.28-.77.86-1.15 2.08-1.15 3.67 0 .74.09 1.41.27 2.03.18.6.45 1.13.82 1.56.37.43.82.77 1.37 1 .54.24 1.19.36 1.93.36a4.1 4.1 0 0 0 3.23-1.28c.77-.86 1.15-2.08 1.15-3.67 0-.74-.1-1.41-.27-2.02a4.29 4.29 0 0 0-.81-1.57z"/><path id="z4f9h" d="M200.44 50.86h-10.16v2.29h3.82v10.84h2.55V53.15h3.8z"/><path id="z4f9i" d="M204.3 61.1c-.14.25-.35.48-.64.7-.28.22-.67.33-1.15.33-.36 0-.64-.1-.85-.3-.2-.19-.3-.46-.3-.81 0-.25.07-.46.24-.62.16-.16.37-.29.65-.37.27-.1.58-.15.94-.17a6.7 6.7 0 0 1 1.1.02zm2.34-1.74c.04-.55.06-1.1.06-1.66 0-.5-.06-.95-.16-1.35a2.5 2.5 0 0 0-.54-1.03c-.26-.29-.6-.51-1.03-.67a4.85 4.85 0 0 0-1.62-.23c-.75 0-1.46.07-2.14.2-.69.13-1.28.3-1.77.53l.57 1.82c.35-.16.8-.3 1.34-.4.54-.1 1.05-.14 1.53-.14.65 0 1.06.15 1.25.46.18.3.23.8.15 1.5-.82-.03-1.56 0-2.23.09-.66.1-1.23.26-1.71.5-.48.25-.84.57-1.1.96-.25.4-.38.88-.38 1.46 0 .4.07.78.2 1.11a2.57 2.57 0 0 0 1.48 1.43c.34.13.73.2 1.17.2.7 0 1.26-.15 1.7-.43.44-.28.79-.61 1.03-1h.1l.39 1.3h1.97a5.9 5.9 0 0 1-.28-1.44 28.95 28.95 0 0 1 .02-3.2z"/><path id="z4f9j" d="M212.53 62.19c-.34 0-.6-.04-.81-.12-.2-.09-.4-.2-.57-.33v-3.9c.15-.48.36-.83.62-1.07a1.6 1.6 0 0 1 1.11-.36c.6 0 1.05.23 1.32.68.28.45.41 1.09.41 1.91 0 1.14-.17 1.95-.52 2.45-.35.5-.87.74-1.56.74zm-.53-7.5a3.1 3.1 0 0 0-1.15 1.05h-.07l-.28-1.13h-1.77v13.13h2.42V63.9a3.28 3.28 0 0 0 1.7.35c.68 0 1.28-.12 1.8-.35.54-.24.98-.59 1.35-1.04.36-.45.64-1 .83-1.64.18-.64.28-1.36.28-2.16 0-1.65-.3-2.85-.88-3.6-.58-.74-1.46-1.11-2.62-1.11-.64 0-1.17.11-1.61.34z"/><path id="z4f9k" d="M218.78 63.99h2.5v-7.22h3.51V54.6h-6.01z"/><path id="z4f9l" d="M227.65 58.4c.07-.64.25-1.15.55-1.53.3-.38.78-.57 1.4-.57.55 0 .96.18 1.21.54.25.37.36.89.3 1.56zm3.37-3.86c-.44-.13-.9-.19-1.37-.19-1.42 0-2.52.41-3.3 1.24-.78.82-1.17 2.06-1.17 3.71 0 1.54.35 2.75 1.04 3.63.7.88 1.8 1.32 3.3 1.32.72 0 1.4-.1 2.03-.3.64-.21 1.15-.47 1.52-.77l-.8-1.6a3.8 3.8 0 0 1-2.29.72c-.82 0-1.41-.2-1.78-.6-.36-.4-.56-1-.6-1.78h5.58a11.37 11.37 0 0 0 .19-1.78c0-.73-.1-1.33-.32-1.82a3.05 3.05 0 0 0-2.03-1.78z"/><path id="z4f9m" d="M234.04 56.77h2.66v7.22h2.5v-7.22h2.58V54.6h-7.74z"/><path id="z4f9n" d="M158.78 64.46l4.96-3.96v-8.6h-4.7V35.04h-5.48v16.84h-6.53V35.05h-5.49v22.37h17.24z"/><path id="z4f9o" d="M134.49 29.53h35v38.94h-35zM129 24v50h45.98V24z"/></defs><g><g transform="translate(-129 -24)"><g><use xlink:href="#z4f9a"/></g><g><use xlink:href="#z4f9b"/></g><g><use xlink:href="#z4f9c"/></g><g><use xlink:href="#z4f9d"/></g><g><use xlink:href="#z4f9e"/></g><g><use xlink:href="#z4f9f"/></g><g><use xlink:href="#z4f9g"/></g><g><use xlink:href="#z4f9h"/></g><g><use xlink:href="#z4f9i"/></g><g><use xlink:href="#z4f9j"/></g><g><use xlink:href="#z4f9k"/></g><g><use xlink:href="#z4f9l"/></g><g><use xlink:href="#z4f9m"/></g><g><use xlink:href="#z4f9n"/></g><g><use fill="#fdd101" xlink:href="#z4f9o"/></g></g></g></svg>